<svg width="34" height="34" viewBox="0 0 34 34" fill="none" xmlns="http://www.w3.org/2000/svg">
<g clip-path="url(#clip0_199_141)">
<path fill-rule="evenodd" clip-rule="evenodd" d="M22.9201 33.8838C23.3524 33.9998 23.8794 33.9998 24.9334 33.9998C27.0412 33.9998 28.0952 33.9998 28.96 33.7681C31.3065 33.1392 33.1395 31.3063 33.7683 28.9598C34 28.095 34 27.041 34 24.9332V17.8999C34 14.1389 34 12.2584 33.1174 10.6995C32.2347 9.1406 30.6223 8.17309 27.3972 6.23805L20.4986 2.09891C18.794 1.07618 17.9418 0.564819 17 0.564819C16.0583 0.564819 15.206 1.07619 13.5014 2.09891L6.60285 6.23805C3.3778 8.17309 1.76528 9.1406 0.88264 10.6995C0 12.2584 0 14.1389 0 17.8999V24.9332C0 27.041 0 28.095 0.231705 28.9598C0.860481 31.3063 2.69341 33.1392 5.04002 33.7681C5.90476 33.9998 6.95873 33.9998 9.06666 33.9998C10.1206 33.9998 10.6476 33.9998 11.08 33.8838C12.2533 33.5695 13.1698 32.653 13.4841 31.4797C13.6 31.0474 13.6 30.5204 13.6 29.4664V27.1998C13.6 25.597 13.6 24.7956 14.0979 24.2977C14.5958 23.7998 15.3972 23.7998 17 23.7998C18.6028 23.7998 19.4041 23.7998 19.9021 24.2977C20.4 24.7956 20.4 25.597 20.4 27.1998V29.4664C20.4 30.5204 20.4 31.0474 20.5158 31.4797C20.8303 32.653 21.7467 33.5695 22.9201 33.8838ZM17 3.11483L16.995 3.11524C16.9914 3.11573 16.9788 3.11763 16.9547 3.12409C16.9031 3.1379 16.8012 3.17164 16.6217 3.25605C16.2215 3.44419 15.7095 3.74784 14.8134 4.28552L7.91483 8.42466C6.26044 9.41731 5.17589 10.0713 4.38168 10.6593C3.6319 11.2144 3.30606 11.5949 3.10165 11.9559C2.89724 12.3169 2.73862 12.7921 2.64836 13.7206C2.55277 14.7042 2.55 15.9706 2.55 17.8999V24.9332C2.55 27.2052 2.5719 27.841 2.69482 28.2997C3.0878 29.7664 4.23337 30.9119 5.70002 31.3049C6.15874 31.4279 6.79456 31.4498 9.06666 31.4498C9.61677 31.4498 9.94427 31.4491 10.1903 31.4379C10.3451 31.4309 10.4118 31.4212 10.4283 31.4185C10.7149 31.3386 10.9389 31.1147 11.0188 30.8281C11.0215 30.8116 11.0311 30.7448 11.0382 30.5901C11.0494 30.3441 11.05 30.0165 11.05 29.4664V27.1998C11.05 27.1609 11.05 27.1219 11.05 27.0827C11.0497 26.3853 11.0494 25.6312 11.135 24.9947C11.2352 24.2489 11.4931 23.2962 12.2948 22.4945C13.0965 21.6928 14.0492 21.4351 14.7949 21.3348C15.4314 21.2491 16.1855 21.2494 16.8829 21.2498C16.9221 21.2498 16.9612 21.2498 17 21.2498C17.0388 21.2498 17.0779 21.2498 17.1171 21.2498C17.8145 21.2494 18.5686 21.2491 19.2051 21.3348C19.9509 21.4351 20.9035 21.6928 21.7053 22.4945C22.507 23.2962 22.7647 24.2489 22.865 24.9947C22.9507 25.6312 22.9503 26.3853 22.95 27.0827C22.95 27.1219 22.95 27.161 22.95 27.1998V29.4664C22.95 30.0165 22.9507 30.3441 22.9619 30.5901C22.9689 30.7448 22.9786 30.8116 22.9813 30.8281C23.0612 31.1147 23.2851 31.3386 23.5717 31.4185C23.5882 31.4212 23.655 31.4309 23.8097 31.4379C24.0557 31.4491 24.3833 31.4498 24.9334 31.4498C27.2054 31.4498 27.8412 31.4279 28.2999 31.3049C29.7667 30.9119 30.9121 29.7664 31.3052 28.2997C31.4281 27.841 31.45 27.2052 31.45 24.9332V17.8999C31.45 15.9706 31.4473 14.7042 31.3516 13.7206C31.2613 12.7921 31.1027 12.3169 30.8984 11.9559C30.694 11.5949 30.3681 11.2144 29.6183 10.6593C28.8242 10.0713 27.7396 9.41729 26.0851 8.42466L19.1865 4.28552C18.2905 3.74784 17.7784 3.44419 17.3783 3.25605C17.1987 3.17164 17.0969 3.1379 17.0454 3.12409C17.0212 3.11763 17.0087 3.11573 17.0051 3.11524L17 3.11483Z" fill="black"/>
</g>
<defs>
<clipPath id="clip0_199_141">
<rect width="34" height="34" fill="white"/>
</clipPath>
</defs>
</svg>
